<svg xmlns="http://www.w3.org/2000/svg" viewBox="0 0 64 64">
  <defs>
    <linearGradient id="g" x1="0" y1="0" x2="1" y2="1">
      <stop offset="0%" stop-color="#fff8d8"/>
      <stop offset="35%" stop-color="#f4d56e"/>
      <stop offset="70%" stop-color="#c9a23d"/>
      <stop offset="100%" stop-color="#8a6817"/>
    </linearGradient>
    <linearGradient id="r" x1="0" y1="0" x2="1" y2="1">
      <stop offset="0%" stop-color="#f4d56e"/>
      <stop offset="100%" stop-color="#5a4310"/>
    </linearGradient>
    <radialGradient id="j" cx="0.5" cy="0.5" r="0.5">
      <stop offset="0%" stop-color="#fffce5"/>
      <stop offset="60%" stop-color="#f4d56e"/>
      <stop offset="100%" stop-color="#8a6817"/>
    </radialGradient>
  </defs>
  <g transform="translate(32 32)">
    <polygon points="0,-30 7.5,-7.5 30,0 7.5,7.5 0,30 -7.5,7.5 -30,0 -7.5,-7.5" fill="url(#g)"/>
    <polygon points="0,-30 7.5,-7.5 30,0 7.5,7.5 0,30 -7.5,7.5 -30,0 -7.5,-7.5" fill="url(#g)" transform="rotate(22.5)" opacity="0.65"/>
    <polygon points="0,-15 10.6,-10.6 15,0 10.6,10.6 0,15 -10.6,10.6 -15,0 -10.6,-10.6" fill="#1a0f06"/>
    <polygon points="0,-15 10.6,-10.6 15,0 10.6,10.6 0,15 -10.6,10.6 -15,0 -10.6,-10.6" fill="none" stroke="url(#r)" stroke-width="0.8"/>
    <polygon points="0,-9 2.2,-2.2 9,0 2.2,2.2 0,9 -2.2,2.2 -9,0 -2.2,-2.2" fill="url(#g)"/>
    <polygon points="0,-9 2.2,-2.2 9,0 2.2,2.2 0,9 -2.2,2.2 -9,0 -2.2,-2.2" fill="url(#g)" transform="rotate(45)" opacity="0.75"/>
    <circle r="2.2" fill="url(#j)"/>
    <circle r="2.2" fill="none" stroke="#fff8d8" stroke-width="0.3" opacity="0.6"/>
  </g>
</svg>
